# AST/ASF file generated using VICON BodyLanguage
# -----------------------------------------------
:version 1.10
:name VICON
:units
  mass 1.0
  length 0.45
  angle deg
:documentation
   .ast/.asf automatically generated from VICON data using
   VICON BodyBuilder and BodyLanguage model FoxedUp or BRILLIANT.MOD
:root
   order TX TY TZ RX RY RZ
   axis XYZ
   position 0 0 0  
   orientation 0 0 0 
:bonedata
  begin
     id 1 
     name lhipjoint
     direction 0.624716 -0.669793 0.401383 
     length 2.38238 
     axis 0 0 0  XYZ
  end
  begin
     id 2 
     name lfemur
     direction 0.34202 -0.939693 0  
     length 6.4574  
     axis 0 0 20  XYZ
    dof rx ry rz
    limits (-160.0 20.0)
           (-70.0 70.0)
           (-60.0 70.0)
  end
  begin
     id 3 
     name ltibia
     direction 0.34202 -0.939693 0   
     length 7.68739   
     axis 0 0 20   XYZ
    dof rx
    limits (-10.0 170.0)
  end
  begin
     id 4 
     name lfoot
     direction 0.0681309 -0.187188 0.979959   
     length 2.46615   
     axis -90 7.62852e-016 20   XYZ
    dof rx rz
    limits (-45.0 90.0)
           (-70.0 20.0)
  end
  begin
     id 5 
     name ltoes
     direction 1.53566e-011 -4.21819e-011 1   
     length 1.2376   
     axis -90 7.62852e-016 20   XYZ
    dof rx
    limits (-90.0 20.0)
  end
  begin
     id 6 
     name rhipjoint
     direction -0.644473 -0.655875 0.393043   
     length 2.43293  
     axis 0 0 0  XYZ 
  end
  begin
     id 7 
     name rfemur
     direction -0.34202 -0.939693 0   
     length 6.7025   
     axis 0 0 -20   XYZ
    dof rx ry rz
    limits (-160.0 20.0)
           (-70.0 70.0)
           (-70.0 60.0)
  end
  begin
     id 8 
     name rtibia
     direction -0.34202 -0.939693 0   
     length 7.80547   
     axis 0 0 -20   XYZ
    dof rx
    limits (-10.0 170.0)
 end
 begin
     id 9 
     name rfoot
     direction -0.0756734 -0.207911 0.975216   
     length 2.40315  
     axis -90 -7.62852e-016 -20   XYZ
    dof rx rz
    limits (-45.0 90.0)
           (-20.0 70.0)
  end
  begin
     id 10 
     name rtoes
     direction -1.5353e-011 -4.21879e-011 1   
     length 1.20477   
     axis -90 -7.62852e-016 -20   XYZ
    dof rx
    limits (-90.0 20.0)
  end
  begin
     id 11 
     name lowerback
     direction 0.0160353 0.987463 -0.157037   
     length 2.18572   
     axis 0 0 0   XYZ
    dof rx ry rz
    limits (-20.0 45.0)
           (-30.0 30.0)
           (-30.0 30.0)
  end
  begin
     id 12 
     name upperback
     direction -0.00499661 0.999756 0.0215076   
     length 2.18016   
     axis 0 0 0   XYZ
    dof rx ry rz
    limits (-20.0 45.0)
           (-30.0 30.0)
           (-30.0 30.0)
  end
  begin
     id 13 
     name thorax
     direction -0.00921346 0.995333 0.0960619   
     length 2.24923   
     axis 0 0 0   XYZ
    dof rx ry rz
    limits (-20.0 45.0)
           (-30.0 30.0)
           (-30.0 30.0)
  end
  begin
     id 14 
     name lowerneck
     direction 0.0274184 0.991181 0.12965   
     length 1.70911   
     axis 0 0 0   XYZ
    dof rx ry rz
    limits (-20.0 45.0)
           (-30.0 30.0)
           (-30.0 30.0)
  end
  begin
     id 15 
     name upperneck
     direction 0.0015627 0.999959 -0.00893559   
     length 1.69312   
     axis 0 0 0   XYZ
    dof rx ry rz
    limits (-20.0 45.0)
           (-30.0 30.0)
           (-30.0 30.0)
  end
  begin
     id 16
     name head
     direction -0.00230242 0.999856 -0.0168327  
     length 1.80241  
     axis 0 0 0   XYZ
    dof rx ry rz
    limits (-20.0 45.0)
           (-30.0 30.0)
           (-30.0 30.0)
  end
  begin
     id 17 
     name lclavicle
     direction 0.955523 0.290741 -0.0494489  
     length 3.84275  
     axis 0 0 0   XYZ
    dof ry rz
    limits (-20.0 10.0)
           (0.0 20.0)
  end
  begin
     id 18 
     name lhumerus
     direction 1 -4.48967e-011 -3.18382e-028   
     length 5.17714   
     axis 180 -30 -90   XYZ
    dof rx ry rz
    limits (-60.0 90.0)
           (-90.0 90.0)
           (-90.0 90.0)
  end
  begin
     id 19
     name lradius
     direction 1 -4.48968e-011 -2.22911e-027   
     length 3.43679   
     axis 180 -30 -90   XYZ
    dof rx
    limits (-10.0 170.0)
  end
  begin
     id 20
     name lwrist
     direction 1 -4.48951e-011 -6.32245e-027   
     length 1.7184   
     axis 3.57107e-015 90 90   XYZ
    dof ry
    limits (-180.0 0.0)
 end
  begin
     id 21 
     name lhand
     direction 1 -4.48924e-011 -1.26431e-026   
     length 0.573117   
     axis 8.06912e-015 90 90   XYZ
    dof rx rz
    limits (-90.0 90.0)
           (-45.0 45.0)
  end
  begin
     id 22 
     name lfingers
     direction 1 -4.49001e-011 -2.52965e-026   
     length 0.462062   
     axis 1.61381e-014 90 90   XYZ
    dof rx
    limits (0.0 90.0)
  end
  begin
     id 23
     name lthumb
     direction 0.707107 -6.35008e-011 0.707107   
     length 0.663431   
     axis -90 45 -1.62303e-014   XYZ
    dof rx rz
    limits (-45.0 45.0)
           (-45.0 45.0)
  end
  begin
     id 24 
     name rclavicle
     direction -0.963917 0.256881 -0.0698287   
     length 3.73057  
     axis 0 0 0   XYZ 
    dof ry rz
    limits (-10.0 20.0)
           (-20.0 0.0)
  end
  begin
     id 25 
     name rhumerus
     direction -1 -4.48962e-011 -2.73982e-027  
     length 5.23908   
     axis 180 30 90   XYZ
    dof rx ry rz
    limits (-90.0 60.0)
           (-90.0 90.0)
           (-90.0 90.0)
  end
  begin
     id 26 
     name rradius
     direction -1 -4.48968e-011 -4.33218e-027   
     length 3.46485   
     axis 180 30 90   XYZ
    dof rx
    limits (-10.0 170.0)
  end
  begin
     id 27 
     name rwrist
     direction -1 -4.48989e-011 -6.32372e-027   
     length 1.73243   
     axis 3.57107e-015 -90 -90   XYZ
    dof ry
    limits (-180.0 0.0)
  end
  begin
     id 28
     name rhand
     direction -1 -4.48948e-011 -1.26448e-026   
     length 0.608752   
     axis 8.06912e-015 -90 -90   XYZ
    dof rx rz
    limits (-90.0 90.0)
           (-45.0 45.0)
  end
  begin
     id 29
     name rfingers
     direction -1 -4.48962e-011 -2.52913e-026   
     length 0.490792   
     axis 1.61381e-014 -90 -90   XYZ
    dof rx
    limits (0.0 90.0)
  end
  begin
     id 30
     name rthumb
     direction -0.707107 -6.34878e-011 0.707107   
     length 0.704682   
     axis -90 -45 1.62303e-014   XYZ
    dof rx rz
    limits (-45.0 45.0)
           (-45.0 45.0)
  end
:hierarchy
  begin
    root lhipjoint rhipjoint lowerback
    lhipjoint lfemur
    lfemur ltibia
    ltibia lfoot
    lfoot ltoes
    rhipjoint rfemur
    rfemur rtibia
    rtibia rfoot
    rfoot rtoes
    lowerback upperback
    upperback thorax
    thorax lowerneck lclavicle rclavicle
    lowerneck upperneck
    upperneck head
    lclavicle lhumerus
    lhumerus lradius
    lradius lwrist
    lwrist lhand lthumb
    lhand lfingers
    rclavicle rhumerus
    rhumerus rradius
    rradius rwrist
    rwrist rhand rthumb
    rhand rfingers
  end

#!OML:ASF G:\JayActor3\Patient Classification 1\Patient 1\Session 6\male.ASF
:FULLY-SPECIFIED
:DEGREES
251
root 43.9039 15.607 9.68084 182.418 -52.5162 -186.433
lowerback 10.3088 2.18519 6.21631
upperback 11.7049 1.81458 4.56356
thorax 6.74603 0.655658 1.22595
lowerneck 14.2403 -0.305663 -0.185126
upperneck -20.7283 -1.69703 -3.93231
head -8.87458 -0.507013 -1.08196
rclavicle 6.12257e-014 2.70347e-014
rhumerus -23.6354 -14.7996 -77.3555
rradius 37.5037
rwrist -8.72457
rhand -30.6105 -14.4224
rfingers 7.12502
rthumb -3.90697 -44.3663
lclavicle 6.12257e-014 2.70347e-014
lhumerus -32.2425 23.8093 75.7316
lradius 5.12761
lwrist 6.31418
lhand -21.1007 9.96611
lfingers 7.12502
lthumb 5.27708 39.8804
rfemur -13.7282 -9.41495 20.1321
rtibia 46.9971
rfoot -38.5051 -22.2015
rtoes 5.67214
lfemur -31.2825 15.2577 -25.4079
ltibia 60.9086
lfoot -6.99002 -12.026
ltoes -8.62022
252
root 43.8065 15.6641 9.55397 182.585 -52.2479 -186.173
lowerback 9.69247 2.30859 6.21504
upperback 11.3794 2.02609 4.45646
thorax 6.72999 0.793494 1.11532
lowerneck 13.9696 -0.467736 -0.541326
upperneck -20.3794 -1.87243 -3.4647
head -8.70162 -0.614784 -0.842479
rclavicle -5.40694e-014 -1.43125e-014
rhumerus -23.8448 -14.5618 -77.6367
rradius 37.7079
rwrist -8.59566
rhand -30.3564 -14.4148
rfingers 7.12502
rthumb -3.66163 -44.3631
lclavicle -5.40694e-014 -1.43125e-014
lhumerus -33.3381 23.8503 75.1114
lradius 4.62643
lwrist 6.32583
lhand -20.3079 10.4236
lfingers 7.12502
lthumb 6.04253 40.3174
rfemur -12.7259 -8.73592 20.5072
rtibia 45.5258
rfoot -38.539 -22.4762
rtoes 5.61535
lfemur -31.3916 15.379 -26.3192
ltibia 57.6967
lfoot -8.24379 -10.9893
ltoes -10.6728
253
root 43.7076 15.7201 9.4264 182.674 -51.9614 -185.81
lowerback 9.06599 2.43797 6.28465
upperback 11.0608 2.24148 4.35917
thorax 6.73581 0.935835 0.97981
lowerneck 13.7546 -0.611082 -0.875311
upperneck -20.0959 -2.02436 -3.01167
head -8.56019 -0.710585 -0.616855
rclavicle 7.95139e-015 3.18055e-014
rhumerus -24.0349 -14.2914 -77.9126
rradius 37.9262
rwrist -8.39495
rhand -29.9658 -14.3274
rfingers 7.12502
rthumb -3.28438 -44.2818
lclavicle 7.95139e-015 3.18055e-014
lhumerus -34.5298 23.8676 74.45
lradius 4.41898
lwrist 6.36022
lhand -19.4007 10.7798
lfingers 7.12502
lthumb 6.91835 40.6468
rfemur -11.7043 -8.05609 20.9503
rtibia 44.0029
rfoot -38.6428 -22.6432
rtoes 5.90273
lfemur -31.4027 15.4859 -27.1075
ltibia 54.3136
lfoot -9.51151 -9.74371
ltoes -12.9523
254
root 43.6077 15.7733 9.29875 182.68 -51.666 -185.359
lowerback 8.46099 2.56792 6.42066
upperback 10.7492 2.45464 4.27015
thorax 6.74595 1.07865 0.819376
lowerneck 13.6028 -0.742124 -1.19063
upperneck -19.8686 -2.16187 -2.57169
head -8.44856 -0.798379 -0.402014
rclavicle -7.71285e-014 5.88403e-014
rhumerus -24.2098 -13.9756 -78.1761
rradius 38.1541
rwrist -8.13194
rhand -29.4357 -14.1593
rfingers 7.12502
rthumb -2.77248 -44.121
lclavicle -7.71285e-014 5.88403e-014
lhumerus -35.8217 23.8631 73.7439
lradius 4.5008
lwrist 6.4286
lhand -18.4184 11.0645
lfingers 7.12502
lthumb 7.86654 40.8981
rfemur -10.6517 -7.40229 21.4436
rtibia 42.4536
rfoot -38.7793 -22.7227
rtoes 6.41211
lfemur -31.2942 15.5503 -27.7612
ltibia 50.7837
lfoot -10.6584 -8.40862
ltoes -14.7522
255
root 43.5072 15.8218 9.17131 182.646 -51.3663 -184.879
lowerback 7.88926 2.69676 6.58363
upperback 10.4406 2.66448 4.18143
thorax 6.74651 1.21919 0.646409
lowerneck 13.5062 -0.864448 -1.48835
upperneck -19.6675 -2.28774 -2.14292
head -8.35511 -0.879686 -0.196274
rclavicle 2.38542e-015 0
rhumerus -24.3843 -13.5722 -78.4327
rradius 38.4158
rwrist -7.88092
rhand -28.8437 -13.9619
rfingers 7.12502
rthumb -2.20074 -43.9303
lclavicle 2.38542e-015 0
lhumerus -37.2197 23.8361 72.9891
lradius 4.8591
lwrist 6.53882
lhand -17.416 11.2478
lfingers 7.12502
lthumb 8.8339 41.0429
rfemur -9.58129 -6.7996 21.9432
rtibia 40.909
rfoot -38.9306 -22.7203
rtoes 7.05173
lfemur -31.0546 15.5556 -28.3121
ltibia 47.1327
lfoot -11.6275 -7.1023
ltoes -15.9188
256
root 43.4057 15.8645 9.04437 182.588 -51.0474 -184.41
lowerback 7.36195 2.82686 6.74675
upperback 10.1364 2.87473 4.0882
thorax 6.73113 1.35765 0.469681
lowerneck 13.4591 -0.983084 -1.76505
upperneck -19.4567 -2.4069 -1.72994
head -8.26689 -0.956717 -0.000967508
rclavicle -3.73715e-014 5.24792e-014
rhumerus -24.5603 -13.0488 -78.6833
rradius 38.7055
rwrist -7.68447
rhand -28.2191 -13.7274
rfingers 7.12502
rthumb -1.59756 -43.7011
lclavicle -3.73715e-014 5.24792e-014
lhumerus -38.7053 23.7903 72.1857
lradius 5.42929
lwrist 6.68276
lhand -16.4072 11.3133
lfingers 7.12502
lthumb 9.80735 41.0649
rfemur -8.48345 -6.26665 22.4088
rtibia 39.3903
rfoot -39.0587 -22.6248
rtoes 7.74142
lfemur -30.6666 15.4844 -28.7684
ltibia 43.3994
lfoot -12.4442 -5.90915
ltoes -16.5544
257
root 43.3022 15.9008 8.91801 182.507 -50.6928 -183.958
lowerback 6.86038 2.96129 6.90261
upperback 9.84567 3.08672 3.9904
thorax 6.71939 1.49451 0.294147
lowerneck 13.4496 -1.10104 -2.01929
upperneck -19.2072 -2.52209 -1.33497
head -8.17218 -1.03092 0.183146
rclavicle -5.725e-014 -2.06736e-014
rhumerus -24.7279 -12.3796 -78.9384
rradius 39.0265
rwrist -7.58298
rhand -27.6095 -13.5144
rfingers 7.12502
rthumb -1.00875 -43.4918
lclavicle -5.725e-014 -2.06736e-014
lhumerus -40.2496 23.739 71.3411
lradius 6.15556
lwrist 6.85375
lhand -15.4199 11.2313
lfingers 7.12502
lthumb 10.7598 40.9357
rfemur -7.35858 -5.80678 22.8241
rtibia 37.9128
rfoot -39.1466 -22.4228
rtoes 8.37791
lfemur -30.1362 15.3219 -29.1226
ltibia 39.6396
lfoot -13.0987 -4.85249
ltoes -16.9021
258
root 43.1961 15.9305 8.79207 182.392 -50.293 -183.503
lowerback 6.35079 3.09806 7.06088
upperback 9.5783 3.29329 3.89246
thorax 6.74143 1.6272 0.121304
lowerneck 13.477 -1.21567 -2.26251
upperneck -18.9065 -2.63034 -0.950173
head -8.06665 -1.10096 0.360172
rclavicle -3.73715e-014 -8.11041e-014
rhumerus -24.8609 -11.5368 -79.2152
rradius 39.3715
rwrist -7.60732
rhand -27.0515 -13.3664
rfingers 7.12502
rthumb -0.469836 -43.3456
lclavicle -3.73715e-014 -8.11041e-014
lhumerus -41.8311 23.7057 70.458
lradius 6.9958
lwrist 7.04451
lhand -14.4626 11.0726
lfingers 7.12502
lthumb 11.6831 40.7268
rfemur -6.20595 -5.42647 23.195
rtibia 36.4722
rfoot -39.125 -22.1433
rtoes 8.84512
lfemur -29.4981 15.0534 -29.3513
ltibia 35.9343
lfoot -13.6912 -3.87884
ltoes -17.2292
259
root 43.0868 15.9543 8.66612 182.244 -49.8383 -183.028
lowerback 5.78654 3.24361 7.23011
upperback 9.34845 3.49706 3.79527
thorax 6.84007 1.75857 -0.0489586
lowerneck 13.5354 -1.33282 -2.48319
upperneck -18.5594 -2.7373 -0.571722
head -7.95106 -1.17095 0.530066
rclavicle 1.59028e-015 -9.85972e-014
rhumerus -24.9204 -10.5371 -79.531
rradius 39.7221
rwrist -7.75534
rhand -26.5412 -13.302
rfingers 7.12502
rthumb 0.0230706 -43.2817
lclavicle 1.59028e-015 -9.85972e-014
lhumerus -43.3977 23.7007 69.5518
lradius 7.89888
lwrist 7.25228
lhand -13.5577 10.874
lfingers 7.12502
lthumb 12.5555 40.4767
rfemur -5.02843 -5.11125 23.5269
rtibia 35.0576
rfoot -38.9809 -21.7597
rtoes 9.15743
lfemur -28.8091 14.6575 -29.4303
ltibia 32.3843
lfoot -14.2701 -2.88221
ltoes -17.9844
260
root 42.9756 15.9726 8.53984 182.017 -49.3448 -182.459
lowerback 5.14763 3.38635 7.44931
upperback 9.1568 3.67881 3.71254
thorax 7.02932 1.88122 -0.221885
lowerneck 13.6492 -1.44939 -2.69625
upperneck -18.1821 -2.84118 -0.185758
head -7.8349 -1.24014 0.700103
rclavicle 5.56597e-015 1.39944e-013
rhumerus -24.8828 -9.37353 -79.8939
rradius 40.0591
rwrist -7.98635
rhand -26.0643 -13.3201
rfingers 7.12502
rthumb 0.483631 -43.2993
lclavicle 5.56597e-015 1.39944e-013
lhumerus -44.9412 23.7538 68.617
lradius 8.8445
lwrist 7.4844
lhand -12.74 10.6563
lfingers 7.12502
lthumb 13.3438 40.209
rfemur -3.83339 -4.84602 23.8827
rtibia 33.652
rfoot -38.6386 -21.3776
rtoes 9.158
lfemur -28.1429 14.1211 -29.302
ltibia 29.1111
lfoot -14.779 -1.88972
ltoes -18.5729
